<svg xmlns="http://www.w3.org/2000/svg" viewBox="0 0 95 97.97" id="Furniture">
  <path d="M95 47.77a1.49 1.49 0 0 0-.32-.91V11.94a12.33 12.33 0 0 0-24.65 0v1.91a12.68 12.68 0 0 0-11.3 12.27 1.5 1.5 0 0 0 1.5 1.5h21.65a1.5 1.5 0 0 0 1.5-1.5A12.7 12.7 0 0 0 73 14v-2a9.33 9.33 0 0 1 18.65 0v34.27H1.5a1.5 1.5 0 0 0-1.5 1.5c0 17.44 7 36.08 22.14 39l-4.52 9.03a1.5 1.5 0 1 0 2.68 1.34l5-10h43.37a21.72 21.72 0 0 0 5.8-.78l5.38 10.77a1.5 1.5 0 1 0 2.68-1.34l-5.22-10.43C89.4 80 95 63.39 95 47.77ZM80.24 24.62H61.89c.77-3.95 4.44-7.82 9.18-7.82s8.4 3.87 9.17 7.82ZM90.9 56.79H35.58v-7.52h56.23a1.47 1.47 0 0 0 .16.27 60.22 60.22 0 0 1-.66 7.31 1.48 1.48 0 0 0-.41-.06Zm-58.32-7.52v18.64H19.35V49.27Zm-16.24 0v8.13a1.49 1.49 0 0 0-1.21-.61H4.32a1.49 1.49 0 0 0-.62.14 60.17 60.17 0 0 1-.7-7.66Zm52.33 34.88H26.33c-11.87 0-19.35-11-22.12-24.37h10.93a1.49 1.49 0 0 0 1.21-.61v10.24a1.5 1.5 0 0 0 1.5 1.5h16.23a1.5 1.5 0 0 0 1.5-1.5v-9.62h55.21C88 73.15 80.54 84.15 68.67 84.15Z" fill="#3e516a" class="color000000 svgShape"></path>
</svg>
