<svg xmlns="http://www.w3.org/2000/svg" viewBox="0 0 64 64" id="DiningTable">
  <path d="m59.247 38.166 1.743-20.908c.07-.836-.217-1.67-.785-2.287S58.831 14 57.992 14a3 3 0 0 0-2.994 2.709L53.27 34H44c-1.103 0-2 .897-2 2v2c0 1.034.792 1.878 1.8 1.98l-1.608 8.841a1 1 0 0 0 1.968.358L45.83 40h9.694l1.67 9.179a1 1 0 0 0 1.967-.358l-1.609-8.85a2.009 2.009 0 0 0 1.696-1.805zM44 36h10.174a1 1 0 0 0 .995-.9l1.82-18.192A1.006 1.006 0 0 1 57.991 16c.285 0 .548.115.741.325.194.21.287.483.264.767L57.255 38H44v-2zm-24-2h-9.27L9.002 16.709A3 3 0 0 0 6.008 14c-.839 0-1.645.353-2.213.97s-.854 1.452-.785 2.288l1.743 20.908a2.01 2.01 0 0 0 1.696 1.805l-1.61 8.85a1 1 0 0 0 1.969.358l1.668-9.18h9.695l1.669 9.18a1 1 0 0 0 1.968-.358L20.2 39.98A1.996 1.996 0 0 0 22 38v-2c0-1.103-.897-2-2-2zM5.003 17.092a.999.999 0 0 1 .264-.767.996.996 0 0 1 .741-.325c.52 0 .952.39 1.004.908L8.83 35.1a1 1 0 0 0 .996.9H20v2H6.746L5.003 17.092z" fill="#3e516a" class="color000000 svgShape"></path>
  <path d="M46 28c1.103 0 2-.897 2-2v-2c0-1.103-.897-2-2-2H18c-1.103 0-2 .897-2 2v2c0 1.103.897 2 2 2h7v2c0 1.103.897 2 2 2h4v12h-2c-1.654 0-3 1.346-3 3v2a1 1 0 0 0 1 1h10a1 1 0 0 0 1-1v-2c0-1.654-1.346-3-3-3h-2V32h4c1.103 0 2-.897 2-2v-2h7ZM36 47v1h-8v-1a1 1 0 0 1 1-1h6a1 1 0 0 1 1 1ZM18 24h28l.002 2H18v-2Zm19.002 6H27v-2h10l.002 2Z" fill="#3e516a" class="color000000 svgShape"></path>
</svg>
